<?xml version="1.0" standalone="no"?>
<!DOCTYPE svg PUBLIC "-//W3C//DTD SVG 20010904//EN"
 "http://www.w3.org/TR/2001/REC-SVG-20010904/DTD/svg10.dtd">
<svg version="1.0" xmlns="http://www.w3.org/2000/svg"
 width="180.000000pt" height="180.000000pt" viewBox="0 0 180.000000 180.000000"
 preserveAspectRatio="xMidYMid meet">

<g transform="translate(0.000000,180.000000) scale(0.100000,-0.100000)"
fill="#000000" stroke="none">
<path d="M508 1668 c-8 -7 -20 -21 -25 -32 -7 -12 -24 -20 -47 -22 -53 -5
-131 -51 -182 -108 -122 -135 -194 -357 -194 -598 0 -108 0 -109 23 -106 21 3
22 9 29 117 17 273 123 493 274 567 39 19 54 32 55 48 0 11 3 16 5 10 3 -7
-13 -123 -36 -259 -22 -137 -39 -249 -38 -251 5 -4 128 -8 132 -3 3 2 21 96
41 209 20 113 38 213 41 223 4 12 16 17 44 17 38 0 39 -1 34 -27 -18 -99 -41
-249 -38 -252 2 -2 34 8 71 22 l68 25 12 53 12 54 -4 -49 c-4 -35 3 -72 22
-135 l27 -86 14 70 c13 66 12 74 -8 128 -12 31 -28 64 -37 73 -14 14 -14 28 6
152 12 75 25 145 27 155 5 16 -7 17 -153 17 -112 0 -164 -4 -175 -12z"/>
<path d="M891 1599 c-17 -45 -34 -92 -37 -105 l-6 -24 130 0 c105 0 132 -3
143 -16 10 -13 5 -66 -35 -312 -25 -163 -46 -305 -46 -314 0 -15 10 -18 63
-18 l63 0 22 113 c62 318 112 635 106 669 -3 21 -15 49 -26 63 -19 25 -20 25
-183 25 l-163 0 -31 -81z"/>
<path d="M1341 1373 c-13 -170 -25 -366 -28 -436 l-6 -128 54 3 54 3 7 45 c4
25 23 200 43 390 19 190 38 364 41 388 l5 42 -73 0 -74 0 -23 -307z"/>
<path d="M1617 1658 c-30 -122 -177 -815 -177 -835 0 -9 17 -13 54 -13 47 0
54 3 60 23 4 12 52 200 107 417 55 217 102 403 105 413 5 15 -3 17 -69 17 -69
0 -75 -2 -80 -22z"/>
<path d="M905 1408 c-5 -17 -60 -358 -75 -463 -6 -44 -13 -92 -16 -107 l-6
-28 66 0 c53 0 66 3 70 18 6 18 106 571 106 584 0 14 -140 9 -145 -4z"/>
<path d="M351 917 c-20 -118 -36 -107 159 -107 l170 0 0 54 c0 44 -5 61 -24
83 -24 28 -25 28 -159 31 l-135 4 -11 -65z"/>
</g>
</svg>
