<?xml version="1.0" standalone="no"?>
<!DOCTYPE svg PUBLIC "-//W3C//DTD SVG 20010904//EN"
 "http://www.w3.org/TR/2001/REC-SVG-20010904/DTD/svg10.dtd">
<svg version="1.0" xmlns="http://www.w3.org/2000/svg"
 width="546.000000pt" height="315.000000pt" viewBox="0 0 546.000000 315.000000"
 preserveAspectRatio="xMidYMid meet">
<metadata>
Created by potrace 1.10, written by Peter Selinger 2001-2011
</metadata>
<g transform="translate(0.000000,315.000000) scale(0.100000,-0.100000)"
fill="#000000" stroke="none">
<path d="M1695 2980 c-385 -5 -402 -6 -440 -26 -52 -28 -69 -48 -99 -114 -21
-47 -246 -788 -246 -812 0 -4 82 -8 183 -8 l183 0 84 288 c45 158 87 301 92
319 15 56 30 63 129 63 89 0 90 0 83 -22 -39 -117 -119 -394 -113 -396 3 -1
86 15 184 38 97 22 178 40 180 40 2 0 6 15 10 33 4 17 22 79 40 137 49 154
137 461 133 463 -1 1 -183 0 -403 -3z m346 -42 c9 -14 1 -57 -14 -75 -5 -7 -7
-13 -5 -13 3 0 -8 -46 -24 -102 -44 -152 -48 -170 -52 -205 -7 -60 -47 -162
-65 -168 -10 -3 -49 -12 -87 -20 -38 -7 -87 -18 -109 -24 -96 -25 -101 -16
-56 118 15 47 36 119 47 160 l18 73 -23 19 c-18 15 -40 19 -102 19 -72 0 -81
-2 -109 -27 -19 -18 -36 -47 -45 -78 -7 -27 -25 -90 -40 -140 -15 -49 -39
-135 -55 -190 -16 -55 -35 -124 -43 -153 -24 -84 -21 -82 -180 -82 l-140 0 5
38 c3 21 20 85 38 142 18 57 33 108 34 114 6 25 38 133 49 161 14 35 14 37 16
71 0 14 5 23 10 20 5 -3 11 9 14 27 27 180 49 226 133 284 58 41 140 49 498
46 213 -2 281 -5 287 -15z"/>
<path d="M4233 2982 c-161 -2 -182 -4 -188 -20 -38 -96 -367 -957 -406 -1061
-27 -75 -54 -146 -59 -159 -7 -16 -7 -21 1 -17 17 11 72 134 159 360 45 116
88 224 95 240 6 17 18 46 25 65 7 19 19 49 26 67 8 17 14 34 14 37 0 3 8 25
19 49 10 23 24 58 31 77 7 19 17 46 22 60 6 14 14 34 18 45 38 105 75 193 88
208 13 14 34 17 144 17 102 0 130 -3 134 -14 6 -16 -30 -110 -125 -331 -5 -11
-18 -41 -30 -67 -12 -26 -21 -55 -21 -63 0 -8 -3 -15 -8 -15 -4 0 -13 -19 -20
-42 -7 -24 -24 -65 -36 -93 -22 -47 -47 -104 -65 -150 -5 -11 -18 -40 -29 -65
-11 -25 -26 -61 -32 -80 -7 -19 -19 -48 -26 -65 -63 -147 -108 -256 -119 -285
-14 -36 -228 -549 -245 -585 -17 -38 -98 -230 -126 -302 -19 -47 -36 -75 -49
-80 -23 -8 -239 -13 -272 -6 -29 6 -29 21 -4 195 11 73 23 156 26 183 3 28 12
93 20 145 8 52 23 158 35 235 11 77 24 174 30 215 6 41 11 82 12 90 0 8 4 33
8 55 5 22 11 63 14 90 3 28 13 97 21 155 9 58 19 128 21 155 3 28 8 57 11 65
3 8 7 33 10 55 2 22 15 121 30 220 14 99 27 192 28 206 2 15 6 46 11 70 4 24
8 51 9 61 3 42 22 48 151 48 157 0 151 7 124 -150 -6 -30 -12 -68 -14 -85 -3
-16 -9 -57 -15 -90 -5 -33 -12 -78 -16 -100 -3 -22 -10 -69 -16 -105 -5 -36
-14 -96 -19 -133 -5 -38 -12 -71 -14 -75 -2 -4 -7 -25 -10 -47 -3 -22 -8 -51
-11 -65 -2 -14 -7 -45 -9 -70 -3 -25 -10 -70 -16 -100 -13 -64 -25 -218 -16
-209 8 8 41 189 136 754 44 264 82 486 85 493 3 9 -37 12 -180 12 l-184 0 -5
-32 c-5 -27 -37 -263 -61 -438 -2 -19 -20 -150 -39 -290 -57 -414 -134 -981
-162 -1185 -14 -104 -31 -227 -38 -273 l-13 -82 180 2 180 3 42 100 c24 55 93
219 155 365 62 146 125 294 140 330 15 36 78 184 140 330 62 146 125 294 140
330 15 36 78 184 140 330 61 146 136 320 165 388 29 67 50 123 46 125 -3 1
-88 1 -188 -1z"/>
<path d="M2214 2843 c-48 -76 -93 -145 -100 -154 -8 -8 -14 -19 -14 -22 0 -4
157 -7 348 -7 369 0 372 0 372 -47 0 -20 -145 -524 -392 -1363 -37 -129 -68
-213 -81 -227 -18 -20 -30 -23 -104 -23 -46 0 -83 2 -83 4 0 3 5 17 11 33 8
23 216 725 411 1388 22 77 45 148 50 158 8 16 -4 17 -181 17 l-190 0 -9 -32
c-5 -18 -33 -116 -62 -218 -28 -102 -60 -210 -70 -240 -10 -30 -44 -143 -75
-250 -32 -107 -72 -244 -90 -305 -18 -60 -56 -193 -85 -295 -60 -211 -91 -317
-130 -445 -15 -49 -31 -100 -35 -112 l-6 -23 328 0 c341 0 424 7 504 42 71 30
141 109 167 188 12 36 139 465 283 955 243 827 261 893 257 952 -5 75 -26 109
-88 141 -44 22 -49 22 -446 22 l-402 0 -88 -137z m826 105 c78 -3 145 -42 158
-92 12 -40 5 -118 -13 -175 -8 -25 -15 -52 -15 -60 0 -9 -7 -29 -15 -45 -8
-15 -15 -35 -15 -44 0 -20 -38 -153 -50 -174 -6 -10 -10 -26 -10 -36 0 -10 -3
-22 -7 -25 -3 -4 -8 -21 -10 -39 -2 -18 -8 -37 -13 -42 -6 -6 -10 -20 -10 -33
0 -12 -4 -32 -9 -45 -5 -13 -17 -48 -25 -78 -8 -30 -26 -93 -40 -140 -14 -47
-48 -166 -76 -265 -59 -210 -84 -295 -110 -385 -11 -36 -29 -96 -40 -135 -76
-268 -90 -300 -156 -350 -98 -75 -114 -78 -503 -76 -184 1 -337 4 -340 6 -8 8
48 219 96 365 37 113 93 291 116 375 3 11 27 90 52 175 26 85 49 166 52 180 3
14 9 30 13 35 4 6 20 60 35 120 38 155 85 316 100 345 14 27 24 61 51 160 19
71 45 105 81 103 13 -1 70 -1 127 -2 99 -1 105 -2 112 -23 4 -13 2 -24 -5 -26
-6 -2 -9 -7 -6 -12 5 -9 -13 -79 -89 -340 -188 -648 -326 -1133 -326 -1150 0
-29 31 -40 109 -40 63 0 74 3 102 28 32 29 30 23 120 332 22 74 55 185 73 245
52 169 88 289 91 300 7 33 19 71 24 80 3 6 6 15 7 21 1 7 11 43 23 80 49 161
94 310 98 329 3 11 7 27 10 35 4 8 8 26 10 40 2 13 9 30 15 37 5 7 11 44 12
82 1 59 -2 72 -19 85 -33 24 -68 27 -359 26 -153 -1 -281 1 -284 5 -11 11 116
216 148 238 13 9 105 11 341 10 178 -1 344 -3 369 -5z"/>
<path d="M986 2869 c-216 -46 -390 -141 -547 -298 -161 -162 -273 -383 -298
-593 -18 -147 -18 -161 -9 -263 17 -191 97 -402 207 -547 51 -67 204 -218 221
-218 5 0 10 9 10 20 0 13 -11 25 -32 33 -30 13 -72 54 -148 142 -90 105 -174
274 -205 415 -55 247 -31 469 78 710 12 25 23 47 27 50 3 3 14 22 25 44 41 80
193 237 300 312 41 29 185 106 185 99 0 -3 10 1 23 9 42 26 225 70 252 60 10
-4 13 -14 9 -33 -8 -34 -32 -59 -64 -65 -14 -3 -38 -9 -55 -12 -16 -3 -48 -15
-71 -25 -22 -10 -45 -19 -50 -19 -36 0 -207 -109 -286 -182 -43 -40 -65 -65
-128 -148 -57 -74 -118 -208 -141 -308 -6 -26 -13 -56 -16 -67 -2 -11 -7 -64
-10 -119 -11 -197 43 -407 145 -560 49 -74 173 -214 190 -215 24 -2 11 19 -48
80 -108 110 -184 243 -231 404 -21 70 -24 101 -23 240 0 185 10 234 82 385 96
204 252 358 456 450 65 30 200 70 234 70 13 0 21 14 31 58 8 34 23 68 39 85
l26 27 -45 -1 c-24 0 -84 -9 -133 -20z"/>
<path d="M1990 2513 c0 -33 -26 -121 -40 -138 -6 -8 3 -33 31 -81 46 -79 79
-147 79 -166 1 -7 7 -24 14 -38 14 -24 14 -23 21 25 10 70 23 124 42 168 16
36 15 39 -7 80 -29 53 -121 177 -132 177 -4 0 -8 -12 -8 -27z m85 -124 c39
-63 42 -78 28 -143 -9 -43 -29 -58 -40 -29 -3 10 -21 41 -38 69 -44 68 -49 88
-34 129 19 52 42 45 84 -26z"/>
<path d="M886 1958 c-21 -66 -76 -258 -76 -262 0 -3 119 -6 264 -6 146 0 267
-4 270 -8 2 -4 -10 -59 -29 -122 -132 -452 -157 -534 -166 -551 -8 -16 -22
-19 -95 -19 -63 0 -86 4 -90 14 -3 7 15 80 40 161 25 80 46 149 46 151 0 2
-79 3 -177 2 l-176 -3 -29 -105 c-16 -58 -43 -152 -60 -210 -17 -58 -31 -126
-32 -151 0 -88 62 -152 158 -164 92 -12 546 1 590 16 21 7 58 31 82 54 37 33
50 56 75 129 57 169 239 800 245 853 14 114 -42 200 -145 222 -77 16 -690 15
-695 -1z m698 -32 c71 -22 116 -82 118 -160 0 -24 -14 -92 -31 -152 -17 -60
-36 -127 -42 -149 -6 -22 -20 -67 -29 -100 -49 -162 -107 -374 -119 -430 -25
-122 -88 -193 -196 -220 -16 -4 -153 -6 -304 -6 -308 2 -328 6 -365 75 -34 64
-9 191 90 464 l16 42 139 0 c103 0 141 -3 144 -12 3 -7 -4 -44 -16 -83 -11
-38 -28 -97 -37 -129 l-15 -59 26 -23 c23 -20 37 -23 96 -21 106 3 106 3 178
242 25 83 58 195 75 250 17 55 38 127 46 159 l16 59 -28 24 c-27 23 -30 23
-257 23 l-229 0 0 24 c0 12 4 36 9 52 5 16 15 49 22 74 7 25 18 50 24 57 16
19 606 18 669 -1z"/>
<path d="M1744 1074 c-32 -26 -92 -62 -132 -82 -72 -34 -90 -48 -78 -59 6 -7
74 25 149 70 26 16 55 30 65 31 14 2 72 86 59 86 -2 0 -30 -21 -63 -46z"/>
<path d="M1705 890 c-10 -17 -130 -69 -174 -76 -23 -4 -49 -17 -62 -30 -27
-28 -26 -28 37 -8 91 29 224 91 224 104 0 14 -18 21 -25 10z"/>
</g>
</svg>
