<svg data-v-423bf9ae="" xmlns="http://www.w3.org/2000/svg" viewBox="0 0 795.965348826056 163" class="iconAbove"><!----><!----><!----><g data-v-423bf9ae="" id="67ffc389-31af-41e7-a475-dc0934bcdc92" fill="#241030" transform="matrix(5.84755847971153,0,0,5.84755847971153,-2.635697339644878,79.72671952340058)"><path d="M4.82 14.17C7 14.17 8.72 13.30 8.72 11.19C8.72 7.06 2.31 9.09 2.31 6.80C2.31 5.68 3.49 5.45 4.82 5.45C6.09 5.45 6.59 5.82 6.69 5.88C7.36 6.26 7.04 6.61 7.27 6.72C7.49 6.83 7.57 6.68 7.73 6.44L8.44 5.33C8.60 5.10 8.69 4.90 8.51 4.76C8.27 4.58 8.19 4.98 7.67 4.69C7.49 4.58 6.62 3.98 4.82 3.98C2.17 3.98 0.70 5.00 0.74 6.80C0.84 10.89 7.10 8.86 7.10 11.19C7.10 12.38 6.05 12.66 4.82 12.66C2.77 12.66 2.28 12.00 2.14 11.86C1.82 11.55 2.07 11.31 1.90 11.19C1.72 11.05 1.50 11.26 1.32 11.51L0.69 12.38C0.50 12.63 0.34 12.87 0.55 13.02C0.76 13.17 0.91 12.84 1.34 13.15C1.55 13.30 2.45 14.17 4.82 14.17ZM10.68 14L12.33 14C12.64 14 12.85 14.01 12.85 13.79C12.85 13.45 12.28 13.58 12.28 12.49L12.28 11.06C12.28 10.82 12.26 10.77 12.70 10.78L15.20 10.78C17.61 10.78 18.72 9.42 18.72 7.39C18.72 5.01 17.15 4.20 15.40 4.20L10.74 4.20C10.22 4.20 9.98 4.17 9.98 4.45C9.98 4.83 10.63 4.56 10.63 5.56L10.63 12.56C10.63 13.61 10.02 13.40 10.02 13.78C10.02 13.99 10.32 14 10.68 14ZM12.52 9.18C12.25 9.18 12.28 9.02 12.28 8.78L12.28 6.37C12.28 5.75 12.29 5.74 12.73 5.74L15.04 5.74C16.23 5.74 17.09 6.24 17.09 7.41C17.09 8.53 16.48 9.18 15.12 9.18ZM19.14 9.16C19.14 12.52 21.59 14.20 24.07 14.24C26.61 14.28 29.19 12.59 29.19 9.16C29.19 5.71 26.73 4.02 24.23 3.99C21.70 3.98 19.14 5.71 19.14 9.16ZM20.82 9.16C20.82 6.69 22.53 5.47 24.22 5.49C25.89 5.50 27.55 6.72 27.55 9.16C27.55 11.58 25.83 12.78 24.12 12.75C22.46 12.73 20.82 11.52 20.82 9.16ZM30.39 14L32.16 14C32.51 14 32.63 13.93 32.63 13.78C32.63 13.44 32.13 13.54 32.13 12.92L32.13 10.78C32.13 10.25 32.37 10.28 32.49 10.28L35.11 10.28C35.49 10.28 35.59 10.32 35.69 10.56L36.69 12.92C36.95 13.52 36.40 13.40 36.40 13.79C36.40 13.96 36.53 14 37.09 14L38.44 14C38.68 14 38.91 14 38.91 13.78C38.91 13.40 38.46 13.47 38.29 13.06L37.11 10.25C37.04 10.08 37.06 9.97 37.25 9.84C37.79 9.49 38.56 8.51 38.56 7.39C38.56 5.19 36.88 4.20 35.06 4.20L30.81 4.20C30.23 4.20 30.03 4.26 30.03 4.42C30.03 4.77 30.56 4.56 30.56 5.49L30.56 12.89C30.56 13.47 30.04 13.48 30.04 13.79C30.04 14 30.28 14 30.39 14ZM32.62 8.88C32.35 8.88 32.14 8.79 32.14 8.54L32.13 6.10C32.13 5.77 32.30 5.68 32.56 5.68L35.06 5.68C36.40 5.68 36.92 6.38 36.92 7.39C36.92 8.27 36.18 8.88 35.25 8.88ZM41.97 14L43.96 14C44.17 14 44.30 13.96 44.30 13.75C44.30 13.50 43.82 13.55 43.82 13.02L43.83 5.94C43.83 5.67 43.95 5.56 44.20 5.56L45.99 5.56C46.54 5.56 46.41 5.98 46.69 5.98C46.87 5.98 46.96 5.81 46.96 5.28L46.96 4.49C46.96 4.28 46.82 4.20 46.62 4.20L39.13 4.20C38.88 4.20 38.77 4.28 38.77 4.52L38.77 5.40C38.77 5.81 38.84 5.92 39.02 5.92C39.28 5.92 39.13 5.54 39.94 5.54L41.75 5.56C42.08 5.56 42.14 5.70 42.14 5.95L42.11 13.01C42.11 13.51 41.62 13.52 41.62 13.78C41.62 13.96 41.76 14 41.97 14ZM51.91 14.17C54.10 14.17 55.82 13.30 55.82 11.19C55.82 7.06 49.41 9.09 49.41 6.80C49.41 5.68 50.58 5.45 51.91 5.45C53.19 5.45 53.69 5.82 53.79 5.88C54.46 6.26 54.14 6.61 54.36 6.72C54.59 6.83 54.67 6.68 54.82 6.44L55.54 5.33C55.69 5.10 55.79 4.90 55.61 4.76C55.37 4.58 55.29 4.98 54.77 4.69C54.59 4.58 53.72 3.98 51.91 3.98C49.27 3.98 47.80 5.00 47.84 6.80C47.94 10.89 54.19 8.86 54.19 11.19C54.19 12.38 53.14 12.66 51.91 12.66C49.87 12.66 49.38 12.00 49.24 11.86C48.92 11.55 49.17 11.31 49 11.19C48.82 11.05 48.59 11.26 48.41 11.51L47.78 12.38C47.60 12.63 47.43 12.87 47.64 13.02C47.85 13.17 48.01 12.84 48.44 13.15C48.65 13.30 49.55 14.17 51.91 14.17ZM57.69 14L61.63 14C64.48 14 66.29 11.80 66.29 9.03C66.29 6.23 64.46 4.20 61.61 4.20L57.74 4.20C57.44 4.20 57.11 4.17 57.11 4.41C57.11 4.76 57.62 4.58 57.62 5.43L57.62 12.81C57.62 13.54 57.08 13.36 57.08 13.72C57.08 13.97 57.41 14 57.69 14ZM59.51 12.56C59.25 12.56 59.18 12.50 59.18 12.18L59.18 5.95C59.18 5.77 59.29 5.66 59.51 5.66L61.17 5.64C63.22 5.63 64.60 6.50 64.60 9.00C64.60 11.44 63.29 12.56 61.17 12.56ZM66.68 14L68.26 14C68.67 14 68.88 13.97 68.88 13.76C68.88 13.29 68.46 13.62 68.67 12.81L68.80 12.32C68.87 12.17 69.03 12.12 69.17 12.12L72.56 12.12C72.74 12.12 72.86 12.15 72.93 12.35L73.18 13.05C73.35 13.52 72.86 13.36 72.86 13.76C72.86 13.97 73.00 14 73.32 14L75.00 14C75.39 14 75.53 13.97 75.53 13.73C75.53 13.41 75.12 13.51 74.91 12.96L71.92 5.22C71.72 4.73 72.18 4.77 72.18 4.47C72.18 4.27 72.06 4.20 71.83 4.20L69.78 4.20C69.57 4.20 69.44 4.27 69.44 4.47C69.44 4.73 69.80 4.72 69.64 5.22L66.98 12.89C66.77 13.51 66.29 13.38 66.29 13.73C66.29 13.96 66.49 14 66.68 14ZM69.51 10.74C69.34 10.74 69.26 10.65 69.31 10.49L70.67 6.55C70.71 6.43 70.84 6.41 70.90 6.57L72.28 10.43C72.34 10.58 72.31 10.74 72.14 10.74ZM77.62 14L79.60 14C79.81 14 79.94 13.96 79.94 13.75C79.94 13.50 79.46 13.55 79.46 13.02L79.48 5.94C79.48 5.67 79.59 5.56 79.84 5.56L81.63 5.56C82.18 5.56 82.05 5.98 82.33 5.98C82.52 5.98 82.60 5.81 82.60 5.28L82.60 4.49C82.60 4.28 82.46 4.20 82.26 4.20L74.77 4.20C74.52 4.20 74.41 4.28 74.41 4.52L74.41 5.40C74.41 5.81 74.48 5.92 74.66 5.92C74.93 5.92 74.77 5.54 75.59 5.54L77.39 5.56C77.73 5.56 77.78 5.70 77.78 5.95L77.76 13.01C77.76 13.51 77.27 13.52 77.27 13.78C77.27 13.96 77.41 14 77.62 14ZM82.43 14L84.01 14C84.42 14 84.63 13.97 84.63 13.76C84.63 13.29 84.21 13.62 84.42 12.81L84.55 12.32C84.62 12.17 84.78 12.12 84.92 12.12L88.31 12.12C88.49 12.12 88.61 12.15 88.68 12.35L88.93 13.05C89.10 13.52 88.61 13.36 88.61 13.76C88.61 13.97 88.75 14 89.07 14L90.75 14C91.14 14 91.28 13.97 91.28 13.73C91.28 13.41 90.87 13.51 90.66 12.96L87.67 5.22C87.47 4.73 87.93 4.77 87.93 4.47C87.93 4.27 87.81 4.20 87.58 4.20L85.53 4.20C85.32 4.20 85.19 4.27 85.19 4.47C85.19 4.73 85.55 4.72 85.39 5.22L82.73 12.89C82.52 13.51 82.04 13.38 82.04 13.73C82.04 13.96 82.24 14 82.43 14ZM85.26 10.74C85.09 10.74 85.01 10.65 85.06 10.49L86.42 6.55C86.46 6.43 86.59 6.41 86.65 6.57L88.03 10.43C88.09 10.58 88.06 10.74 87.89 10.74ZM95.42 14.03L98.83 7.41C99.33 6.51 99.44 5.56 99.39 5.12C99.32 4.52 99.62 4.77 99.62 4.40C99.62 4.24 99.46 4.20 99.23 4.20L97.48 4.20C97.31 4.20 97.15 4.20 97.15 4.42C97.15 4.79 97.62 4.59 97.71 5.24C97.76 5.63 97.76 6.08 97.45 6.68L95.35 10.71C95.27 10.85 95.16 10.88 95.02 10.65L92.13 5.17C91.83 4.59 92.33 4.79 92.33 4.47C92.33 4.20 92.18 4.20 91.84 4.20L90.03 4.20C89.94 4.20 89.74 4.23 89.74 4.45C89.74 4.73 90.08 4.65 90.36 5.18L94.95 14.01C95.05 14.20 95.34 14.20 95.42 14.03ZM100.87 14L108.08 14C108.25 14 108.32 13.90 108.32 13.71L108.32 12.61C108.32 12.35 108.32 12.12 108.07 12.12C107.72 12.12 107.97 12.61 107.27 12.61L102.96 12.61C102.69 12.61 102.54 12.60 102.54 12.28L102.54 10.05C102.52 9.83 102.66 9.72 102.93 9.72L105.70 9.72C106.11 9.72 106.16 10.14 106.33 10.14C106.53 10.14 106.62 10.02 106.62 9.63L106.62 8.50C106.62 8.19 106.61 7.97 106.36 7.97C106.16 7.97 106.16 8.34 105.70 8.34L102.84 8.34C102.59 8.34 102.52 8.26 102.52 7.95L102.52 5.87C102.52 5.67 102.62 5.59 102.79 5.59L107.16 5.59C107.93 5.59 107.77 6.05 108.05 6.05C108.32 6.05 108.32 5.73 108.32 5.56L108.32 4.51C108.32 4.24 108.14 4.20 107.97 4.20L101.26 4.20C100.84 4.20 100.37 4.14 100.37 4.38C100.37 4.84 100.93 4.49 100.93 5.40L100.94 12.94C100.94 13.61 100.32 13.45 100.32 13.83C100.32 14.04 100.74 14 100.87 14ZM109.94 14L111.71 14C112.06 14 112.18 13.93 112.18 13.78C112.18 13.44 111.68 13.54 111.68 12.92L111.68 10.78C111.68 10.25 111.92 10.28 112.04 10.28L114.66 10.28C115.04 10.28 115.14 10.32 115.23 10.56L116.24 12.92C116.49 13.52 115.95 13.40 115.95 13.79C115.95 13.96 116.07 14 116.63 14L117.99 14C118.23 14 118.45 14 118.45 13.78C118.45 13.40 118.01 13.47 117.84 13.06L116.66 10.25C116.59 10.08 116.61 9.97 116.80 9.84C117.33 9.49 118.10 8.51 118.10 7.39C118.10 5.19 116.42 4.20 114.60 4.20L110.36 4.20C109.77 4.20 109.58 4.26 109.58 4.42C109.58 4.77 110.11 4.56 110.11 5.49L110.11 12.89C110.11 13.47 109.59 13.48 109.59 13.79C109.59 14 109.83 14 109.94 14ZM112.17 8.88C111.90 8.88 111.69 8.79 111.69 8.54L111.68 6.10C111.68 5.77 111.85 5.68 112.11 5.68L114.60 5.68C115.95 5.68 116.47 6.38 116.47 7.39C116.47 8.27 115.72 8.88 114.80 8.88ZM123.41 14.17C125.59 14.17 127.32 13.30 127.32 11.19C127.32 7.06 120.90 9.09 120.90 6.80C120.90 5.68 122.08 5.45 123.41 5.45C124.68 5.45 125.19 5.82 125.29 5.88C125.96 6.26 125.64 6.61 125.86 6.72C126.08 6.83 126.17 6.68 126.32 6.44L127.04 5.33C127.19 5.10 127.29 4.90 127.11 4.76C126.87 4.58 126.78 4.98 126.27 4.69C126.08 4.58 125.22 3.98 123.41 3.98C120.76 3.98 119.29 5.00 119.34 6.80C119.43 10.89 125.69 8.86 125.69 11.19C125.69 12.38 124.64 12.66 123.41 12.66C121.37 12.66 120.88 12.00 120.74 11.86C120.41 11.55 120.67 11.31 120.50 11.19C120.32 11.05 120.09 11.26 119.91 11.51L119.28 12.38C119.10 12.63 118.93 12.87 119.14 13.02C119.35 13.17 119.50 12.84 119.94 13.15C120.15 13.30 121.04 14.17 123.41 14.17ZM129.12 14L136.33 14C136.50 14 136.57 13.90 136.57 13.71L136.57 12.61C136.57 12.35 136.57 12.12 136.32 12.12C135.97 12.12 136.22 12.61 135.52 12.61L131.21 12.61C130.94 12.61 130.79 12.60 130.79 12.28L130.79 10.05C130.77 9.83 130.91 9.72 131.18 9.72L133.95 9.72C134.36 9.72 134.41 10.14 134.58 10.14C134.78 10.14 134.88 10.02 134.88 9.63L134.88 8.50C134.88 8.19 134.86 7.97 134.61 7.97C134.41 7.97 134.41 8.34 133.95 8.34L131.10 8.34C130.84 8.34 130.77 8.26 130.77 7.95L130.77 5.87C130.77 5.67 130.87 5.59 131.04 5.59L135.41 5.59C136.18 5.59 136.02 6.05 136.30 6.05C136.57 6.05 136.57 5.73 136.57 5.56L136.57 4.51C136.57 4.24 136.39 4.20 136.22 4.20L129.51 4.20C129.09 4.20 128.62 4.14 128.62 4.38C128.62 4.84 129.18 4.49 129.18 5.40L129.19 12.94C129.19 13.61 128.58 13.45 128.58 13.83C128.58 14.04 129.00 14 129.12 14Z"></path></g><defs data-v-423bf9ae=""><linearGradient data-v-423bf9ae="" gradientTransform="rotate(25)" id="7c36cce9-0a31-478d-b699-3e9c1e0ae951" x1="0%" y1="0%" x2="100%" y2="0%"><stop data-v-423bf9ae="" offset="0%" style="stop-color: rgb(73, 36, 126); stop-opacity: 1;"></stop><stop data-v-423bf9ae="" offset="100%" style="stop-color: rgb(170, 73, 199); stop-opacity: 1;"></stop></linearGradient></defs><g data-v-423bf9ae="" id="4a5893e6-cb2b-4151-bf68-f09c7b5c86b1" transform="matrix(1.9565217391304348,0,0,1.9565217391304348,347.1304347826087,-5.869565217391305)" stroke="none" fill="url(#7c36cce9-0a31-478d-b699-3e9c1e0ae951)"><g stroke-width="2" stroke-miterlimit="10"><circle cx="26" cy="22" r="11"></circle><path d="M27.795 24.87h-3.59l-1.795 3.108 1.795 3.109h3.59l1.794-3.11zM27.795 12.913h-3.59L22.41 16.02l1.795 3.11h3.59l1.794-3.11z"></path><path d="M33.035 16.021h-3.462l-1.732 2.99L29.573 22h3.462l1.732-2.99zM22.417 22h-3.456l-1.728 2.989 1.728 2.989h3.456l1.728-2.99zM22.417 16.021h-3.456l-1.728 2.99L18.96 22h3.456l1.728-2.99zM33.035 22h-3.462l-1.732 2.989 1.732 2.989h3.462l1.732-2.99zM27.795 31.087l.83 1.597M24.205 31.087l-.831 1.597M32.972 28.097l1.044 1.434M34.767 24.989h1.755M34.767 19.01h1.822M32.972 15.902l.806-1.68M27.795 12.913l.959-1.565M24.205 12.913l-1.075-1.565M19.028 15.902l-1.039-1.44M17.233 19.01h-1.854M17.233 24.989h-1.755M19.028 28.097l-1.039 1.434"></path><path d="M3 3h46v38H3z"></path><path d="M45 7v30H7V7zM37 49H15l3-8h16zM12 49h28"></path></g></g><!----></svg>